<svg width="44" height="44" viewBox="0 0 44 44" fill="none" xmlns="http://www.w3.org/2000/svg">
<circle cx="22" cy="22" r="22" fill="#F56969"/>
<path fill-rule="evenodd" clip-rule="evenodd" d="M25.0254 12V15.922H18.9435V12C18.9435 10.3643 20.3063 9 21.9844 9C23.6625 9 25.0254 10.3643 25.0254 12ZM16.9435 12C16.9435 9.23858 19.223 7 21.9844 7C24.7458 7 27.0254 9.23858 27.0254 12V15.922V16.2417H29.3527C30.4203 16.2417 31.2997 17.0802 31.3505 18.1466L31.9665 31.0841C32.0208 32.2248 31.1107 33.1793 29.9688 33.1793H14C12.8581 33.1793 11.948 32.2248 12.0023 31.0841L12.6184 18.1466C12.6692 17.0802 13.5485 16.2417 14.6161 16.2417H16.9435V15.922V12ZM14.6161 18.2417H29.3527L29.9688 31.1793H14L14.6161 18.2417Z" fill="white"/>
</svg>
