<svg width="171" height="60" viewBox="0 0 171 60" fill="none" xmlns="http://www.w3.org/2000/svg">
<g clip-path="url(#clip0_7_2)">
<path d="M86.5984 33.9C86.5984 36.5 85.8335 38.5 84.3038 39.9C82.774 41.3 80.5791 42 77.7191 42C75.7237 42 73.9944 41.6333 72.5312 40.9C71.0679 40.1667 70.1367 38.9333 70.1367 38.9333C69.7044 38.3333 69.7376 37.4333 70.2365 36.9L71.8328 35.1C72.3316 34.5667 73.03 34.6333 73.3958 35.2333C73.3958 35.2333 73.7284 35.8 74.6928 36.4C75.624 37 76.6549 37.3 77.7523 37.3C78.883 37.3 79.7144 37.0333 80.2798 36.5333C80.8451 36 81.1444 35.2667 81.1444 34.2667C81.1444 33.4 80.7454 32.6 79.9805 31.9C79.2156 31.2 77.8521 30.3 75.89 29.2333C73.7616 28.0333 72.2318 26.8333 71.3672 25.6C70.5025 24.3667 70.037 22.9333 70.037 21.2667C70.037 18.9333 70.8018 17.0667 72.3316 15.7C73.8614 14.3333 75.9233 13.6333 78.5505 13.6333C80.1468 13.6333 81.5435 13.9333 82.7407 14.5333C83.9379 15.1333 84.9024 16.2 84.9024 16.2C85.368 16.7333 85.3679 17.6333 84.8691 18.1667L83.4058 19.7667C82.907 20.3 82.1754 20.2667 81.7431 19.6667C81.7431 19.6667 81.61 19.4667 80.8451 19.0333C80.0803 18.5667 79.2821 18.3333 78.484 18.3333C77.5528 18.3333 76.7879 18.5667 76.2558 19.0667C75.6905 19.5667 75.4244 20.1667 75.4244 20.8667C75.4244 22.3 78.2179 24.3333 78.2179 24.3333C78.8165 24.7667 79.4816 25.2 79.7144 25.3333C79.9472 25.4667 80.8784 26.0333 81.5103 26.4C81.5103 26.4 84.2705 28.2 85.2017 29.4333C86.0996 30.6667 86.5984 32.1667 86.5984 33.9Z" fill="black"/>
<path d="M94.8791 40.1C94.8791 40.8333 94.2805 41.4333 93.5489 41.4333H90.8884C90.1568 41.4333 89.5582 40.8333 89.5582 40.1V15.5C89.5582 14.7667 90.1568 14.1667 90.8884 14.1667H93.5489C94.2805 14.1667 94.8791 14.7667 94.8791 15.5V40.1Z" fill="black"/>
<path d="M122.282 40.1C122.282 40.8333 121.683 41.4333 120.952 41.4333H118.391C117.659 41.4333 116.728 40.9333 116.329 40.3333L105.155 24.1333C104.756 23.5333 104.39 23.6333 104.39 24.3667V40.1C104.39 40.8333 103.792 41.4333 103.06 41.4333H100.499C99.7677 41.4333 99.1691 40.8333 99.1691 40.1V15.5C99.1691 14.7667 99.7677 14.1667 100.499 14.1667H103.06C103.792 14.1667 104.723 14.6667 105.122 15.2667L116.263 31.4C116.662 32 117.028 31.9 117.028 31.1667V15.5C117.028 14.7667 117.626 14.1667 118.358 14.1667H120.918C121.65 14.1667 122.249 14.7667 122.249 15.5V40.1H122.282Z" fill="black"/>
<path d="M146.226 29.5C146.226 30.2333 146.16 31.4 146.06 32.1333C146.06 32.1333 145.395 37.2 143.666 39.1C141.969 41.0333 139.509 41.9667 136.316 41.9667C133.157 41.9667 130.729 40.9667 129 39C127.27 37.0333 126.572 32.1 126.572 32.1C126.472 31.3667 126.406 30.2 126.406 29.4667V15.4667C126.406 14.7333 127.004 14.1333 127.736 14.1333H130.563C131.294 14.1333 131.893 14.7333 131.893 15.4667V30.4C131.893 31.1333 131.959 32.3 132.059 33.0333C132.059 33.0333 132.292 34.8 133.024 35.7C133.789 36.6 134.886 37.0667 136.316 37.0667C137.812 37.0667 138.943 36.6333 139.675 35.7333C140.406 34.8667 140.606 33.0333 140.606 33.0333C140.706 32.3 140.772 31.1333 140.772 30.4V15.5C140.772 14.7667 141.371 14.1667 142.102 14.1667H144.929C145.661 14.1667 146.259 14.7667 146.259 15.5V29.5H146.226Z" fill="black"/>
<path d="M165.881 33.9C165.881 36.5 165.116 38.5 163.586 39.9C162.056 41.3 159.861 42 157.001 42C155.006 42 153.276 41.6333 151.813 40.9C150.35 40.1667 149.419 38.9333 149.419 38.9333C148.986 38.3333 149.02 37.4333 149.519 36.9L151.115 35.1C151.614 34.5667 152.312 34.6333 152.678 35.2333C152.678 35.2333 153.01 35.8 153.975 36.4C154.906 37 155.937 37.3 157.034 37.3C158.165 37.3 158.997 37.0333 159.562 36.5333C160.127 36 160.427 35.2667 160.427 34.2667C160.427 33.4 160.027 32.6 159.263 31.9C158.498 31.2 157.134 30.3 155.172 29.2333C153.044 28.0333 151.514 26.8333 150.649 25.6C149.785 24.3667 149.319 22.9333 149.319 21.2667C149.319 18.9333 150.084 17.0667 151.614 15.7C153.143 14.3333 155.205 13.6333 157.833 13.6333C159.429 13.6333 160.826 13.9333 162.023 14.5333C163.22 15.1333 164.184 16.2 164.184 16.2C164.65 16.7333 164.65 17.6333 164.151 18.1667L162.688 19.7667C162.189 20.3 161.457 20.2667 161.025 19.6667C161.025 19.6667 160.892 19.4667 160.127 19.0333C159.362 18.5667 158.564 18.3333 157.766 18.3333C156.835 18.3333 156.07 18.5667 155.538 19.0667C154.973 19.5667 154.706 20.1667 154.706 20.8667C154.706 22.3 157.5 24.3333 157.5 24.3333C158.099 24.7667 158.764 25.2 158.997 25.3333C159.229 25.4667 160.16 26.0333 160.792 26.4C160.792 26.4 163.553 28.2 164.484 29.4333C165.415 30.6667 165.881 32.1667 165.881 33.9Z" fill="black"/>
<path d="M30.1298 59.5667C46.4027 59.5667 59.5946 46.3442 59.5946 30.0333C59.5946 13.7225 46.4027 0.5 30.1298 0.5C13.8569 0.5 0.6651 13.7225 0.6651 30.0333C0.6651 46.3442 13.8569 59.5667 30.1298 59.5667Z" fill="white"/>
<path d="M47.9883 22.4V37.6667C47.9883 38.2 47.5559 38.6333 47.0238 38.6333C46.4917 38.6333 46.0594 38.2 46.0594 37.6667V22.4C46.0594 20.6 44.5961 19.1333 42.8003 19.1333C41.0045 19.1333 39.5413 20.6 39.5413 22.4V37.6667C39.5413 40.5333 37.2133 42.8667 34.3533 42.8667C31.4933 42.8667 29.1654 40.5333 29.1654 37.6667V22.4C29.1654 20.6 27.7022 19.1333 25.9063 19.1333C24.1105 19.1333 22.6473 20.6 22.6473 22.4V37.6667C22.6473 40.5333 20.3193 42.8667 17.4593 42.8667C14.5993 42.8667 12.2714 40.5333 12.2714 37.6667V22.4C12.2714 21.8667 12.7037 21.4333 13.2358 21.4333C13.7679 21.4333 14.2003 21.8667 14.2003 22.4V37.6667C14.2003 39.4667 15.6635 40.9333 17.4593 40.9333C19.2552 40.9333 20.7184 39.4667 20.7184 37.6667V22.4C20.7184 19.5333 23.0463 17.2 25.9063 17.2C28.7663 17.2 31.0943 19.5333 31.0943 22.4V37.6667C31.0943 39.4667 32.5575 40.9333 34.3533 40.9333C36.1492 40.9333 37.6124 39.4667 37.6124 37.6667V22.4C37.6124 19.5333 39.9403 17.2 42.8003 17.2C45.6603 17.2 47.9883 19.5333 47.9883 22.4Z" fill="black"/>
<path d="M74.2385 52.2635C74.2385 52.8289 74.0334 53.2698 73.6233 53.5862C73.2131 53.9026 72.6565 54.0609 71.9533 54.0609C71.1916 54.0609 70.6057 53.9627 70.1955 53.7664V53.0457C70.4592 53.157 70.7463 53.2449 71.0569 53.3094C71.3674 53.3738 71.675 53.4061 71.9797 53.4061C72.4778 53.4061 72.8528 53.3123 73.1047 53.1248C73.3567 52.9344 73.4826 52.6707 73.4826 52.3338C73.4826 52.1111 73.4372 51.9295 73.3464 51.7889C73.2585 51.6453 73.1091 51.5135 72.8982 51.3934C72.6902 51.2733 72.3723 51.137 71.9445 50.9847C71.3469 50.7708 70.9192 50.5174 70.6613 50.2244C70.4065 49.9315 70.279 49.5491 70.279 49.0775C70.279 48.5823 70.4651 48.1883 70.8371 47.8953C71.2092 47.6024 71.7014 47.4559 72.3137 47.4559C72.9524 47.4559 73.5398 47.5731 74.0759 47.8074L73.843 48.4578C73.3127 48.2352 72.7971 48.1238 72.2961 48.1238C71.9006 48.1238 71.5915 48.2088 71.3689 48.3787C71.1462 48.5486 71.0349 48.7845 71.0349 49.0862C71.0349 49.3089 71.0759 49.492 71.1579 49.6356C71.24 49.7762 71.3777 49.9066 71.571 50.0267C71.7673 50.1439 72.0661 50.2742 72.4675 50.4178C73.1413 50.658 73.6042 50.9158 73.8562 51.1912C74.1111 51.4666 74.2385 51.824 74.2385 52.2635ZM81.9931 53.973H81.1142L78.7719 50.8572L78.0995 51.4549V53.973H77.3525V47.5482H78.0995V50.7342L81.0131 47.5482H81.8964L79.3124 50.3387L81.9931 53.973ZM88.7194 53.973L87.9195 51.9295H85.3444L84.5533 53.973H83.7975L86.3375 47.5218H86.9659L89.4928 53.973H88.7194ZM87.6866 51.2571L86.9396 49.2664C86.8429 49.0145 86.7433 48.7054 86.6407 48.3392C86.5763 48.6204 86.484 48.9295 86.3639 49.2664L85.608 51.2571H87.6866ZM94.1536 53.973H93.4066V48.2117H91.3719V47.5482H96.1883V48.2117H94.1536V53.973ZM102.541 53.973H98.9595V47.5482H102.541V48.2117H99.7066V50.2816H102.37V50.9407H99.7066V53.305H102.541V53.973ZM105.769 47.5482H107.584C108.437 47.5482 109.053 47.6756 109.434 47.9305C109.815 48.1854 110.006 48.5882 110.006 49.139C110.006 49.5198 109.899 49.8348 109.685 50.0838C109.474 50.3299 109.165 50.4896 108.758 50.5628V50.6068C109.733 50.7737 110.221 51.2864 110.221 52.1448C110.221 52.7191 110.026 53.1673 109.636 53.4896C109.25 53.8118 108.708 53.973 108.01 53.973H105.769V47.5482ZM106.516 50.2991H107.747C108.274 50.2991 108.654 50.2171 108.885 50.053C109.116 49.886 109.232 49.6063 109.232 49.2137C109.232 48.8533 109.103 48.5941 108.845 48.4359C108.588 48.2747 108.177 48.1942 107.615 48.1942H106.516V50.2991ZM106.516 50.9319V53.3358H107.857C108.375 53.3358 108.765 53.2361 109.026 53.0369C109.289 52.8348 109.421 52.5198 109.421 52.0921C109.421 51.6937 109.286 51.4007 109.017 51.2132C108.75 51.0257 108.343 50.9319 107.795 50.9319H106.516ZM118.982 50.7518C118.982 51.7801 118.721 52.5887 118.2 53.1776C117.681 53.7664 116.959 54.0609 116.033 54.0609C115.087 54.0609 114.356 53.7723 113.84 53.1951C113.328 52.6151 113.071 51.7977 113.071 50.743C113.071 49.6971 113.329 48.887 113.845 48.3128C114.36 47.7357 115.093 47.4471 116.042 47.4471C116.965 47.4471 117.685 47.7401 118.204 48.326C118.723 48.9119 118.982 49.7205 118.982 50.7518ZM113.862 50.7518C113.862 51.6219 114.047 52.2825 114.416 52.7337C114.788 53.1819 115.327 53.4061 116.033 53.4061C116.745 53.4061 117.283 53.1819 117.646 52.7337C118.009 52.2855 118.191 51.6248 118.191 50.7518C118.191 49.8875 118.009 49.2327 117.646 48.7874C117.286 48.3392 116.751 48.1151 116.042 48.1151C115.33 48.1151 114.788 48.3406 114.416 48.7918C114.047 49.2401 113.862 49.8934 113.862 50.7518ZM126.257 53.973L125.458 51.9295H122.882L122.091 53.973H121.336L123.876 47.5218H124.504L127.031 53.973H126.257ZM125.225 51.2571L124.478 49.2664C124.381 49.0145 124.281 48.7054 124.179 48.3392C124.114 48.6204 124.022 48.9295 123.902 49.2664L123.146 51.2571H125.225ZM130.461 51.3011V53.973H129.714V47.5482H131.476C132.264 47.5482 132.846 47.699 133.221 48.0008C133.599 48.3026 133.788 48.7567 133.788 49.3631C133.788 50.2127 133.357 50.7869 132.496 51.0858L134.241 53.973H133.357L131.802 51.3011H130.461ZM130.461 50.6595H131.485C132.013 50.6595 132.399 50.5555 132.645 50.3475C132.891 50.1365 133.014 49.8216 133.014 49.4026C133.014 48.9778 132.888 48.6717 132.637 48.4842C132.388 48.2967 131.986 48.2029 131.432 48.2029H130.461V50.6595ZM142.206 50.699C142.206 51.7596 141.917 52.5711 141.34 53.1336C140.766 53.6932 139.938 53.973 138.857 53.973H137.078V47.5482H139.046C140.045 47.5482 140.822 47.825 141.376 48.3787C141.929 48.9324 142.206 49.7059 142.206 50.699ZM141.415 50.7254C141.415 49.8875 141.204 49.2562 140.782 48.8314C140.363 48.4066 139.739 48.1942 138.91 48.1942H137.825V53.327H138.734C139.625 53.327 140.294 53.1087 140.743 52.6722C141.191 52.2327 141.415 51.5838 141.415 50.7254ZM149.069 52.2635C149.069 52.8289 148.863 53.2698 148.453 53.5862C148.043 53.9026 147.487 54.0609 146.783 54.0609C146.022 54.0609 145.436 53.9627 145.026 53.7664V53.0457C145.289 53.157 145.576 53.2449 145.887 53.3094C146.197 53.3738 146.505 53.4061 146.81 53.4061C147.308 53.4061 147.683 53.3123 147.935 53.1248C148.187 52.9344 148.313 52.6707 148.313 52.3338C148.313 52.1111 148.267 51.9295 148.176 51.7889C148.089 51.6453 147.939 51.5135 147.728 51.3934C147.52 51.2733 147.202 51.137 146.775 50.9847C146.177 50.7708 145.749 50.5174 145.491 50.2244C145.237 49.9315 145.109 49.5491 145.109 49.0775C145.109 48.5823 145.295 48.1883 145.667 47.8953C146.039 47.6024 146.531 47.4559 147.144 47.4559C147.782 47.4559 148.37 47.5731 148.906 47.8074L148.673 48.4578C148.143 48.2352 147.627 48.1238 147.126 48.1238C146.731 48.1238 146.422 48.2088 146.199 48.3787C145.976 48.5486 145.865 48.7845 145.865 49.0862C145.865 49.3089 145.906 49.492 145.988 49.6356C146.07 49.7762 146.208 49.9066 146.401 50.0267C146.597 50.1439 146.896 50.2742 147.298 50.4178C147.971 50.658 148.434 50.9158 148.686 51.1912C148.941 51.4666 149.069 51.824 149.069 52.2635Z" fill="black"/>
</g>
<defs>
<clipPath id="clip0_7_2">
<rect width="170.27" height="60" fill="white"/>
</clipPath>
</defs>
</svg>
